<mxfile host="app.diagrams.net" modified="2023-11-16T10:46:43.264Z" agent="Mozilla/5.0 (Macintosh; Intel Mac OS X 10_15_7) AppleWebKit/605.1.15 (KHTML, like Gecko) Version/16.3 Safari/605.1.15" version="22.1.2" etag="jPxcVlmlNtFGb4fBrWhD" type="github">
  <diagram name="Seite-1" id="LfTFqsihRz7hiNj3h6Yv">
    <mxGraphModel>
      <root>
        <mxCell id="0" />
        <mxCell id="1" parent="0" />
      </root>
    </mxGraphModel>
  </diagram>
</mxfile>
